<?xml version="1.0" encoding="UTF-8"?>
<svg id="Layer_2" data-name="Layer 2" xmlns="http://www.w3.org/2000/svg" viewBox="0 0 34.24 74.2">
  <defs>
    <style>
      .cls-1 {
        fill: #eb6523;
      }

      .cls-1, .cls-2 {
        stroke-width: 0px;
      }

      .cls-2 {
        fill: #fec87f;
      }
    </style>
  </defs>
  <g id="Layer_3" data-name="Layer 3">
    <path class="cls-1" d="M17.38,0c5.79,0,10.05,1.64,12.77,4.93,2.72,3.29,4.08,7.79,4.08,13.52v37.42c0,5.72-1.36,10.21-4.08,13.46-2.72,3.25-6.98,4.88-12.77,4.88H0V0h17.38ZM17.28,66.67c2.97,0,5.18-.9,6.62-2.7,1.45-1.8,2.17-4.4,2.17-7.79V18.02c0-3.39-.73-5.99-2.17-7.79-1.45-1.8-3.69-2.7-6.73-2.7h-8.9v59.15h9.01Z"/>
    <path class="cls-2" d="M30.16,4.93c-1.1-1.33-2.47-2.38-4.08-3.17v16.13s0,.09,0,.13v38.16c0,3.39-.73,5.99-2.17,7.79-1.45,1.8-3.66,2.7-6.62,2.7h-3.89v7.53h4c5.79,0,10.05-1.62,12.77-4.88,2.72-3.25,4.08-7.74,4.08-13.46V18.44c0-5.72-1.36-10.23-4.08-13.52Z"/>
  </g>
</svg>